<svg xmlns="http://www.w3.org/2000/svg" viewBox="0 0 40.63 50"><defs><style>.cls-1{fill:#fff;}</style></defs><g id="レイヤー_2" data-name="レイヤー 2"><g id="レイヤー_1-2" data-name="レイヤー 1"><path class="cls-1" d="M38.8,8.86a6.28,6.28,0,0,0-9.12.27,9.37,9.37,0,0,0-18.74,0A6.26,6.26,0,1,0,1.83,17.7l7.55,7.55V44.53A5.47,5.47,0,0,0,14.84,50h1.57a5.41,5.41,0,0,0,3.9-1.65A5.45,5.45,0,0,0,24.22,50h1.56a5.47,5.47,0,0,0,5.47-5.47V25.25L38.8,17.7a6.27,6.27,0,0,0,0-8.84ZM20.31,3.12a6.25,6.25,0,1,1-6.25,6.26A6.25,6.25,0,0,1,20.31,3.12ZM36.58,15.49,28.13,24V44.53a2.35,2.35,0,0,1-2.35,2.35H24.22a2.34,2.34,0,0,1-2.34-2.35V33.59H18.75V44.53a2.35,2.35,0,0,1-2.34,2.35H14.84a2.35,2.35,0,0,1-2.34-2.35V24L4,15.49a3.13,3.13,0,0,1,4.42-4.42l7.68,7.68h8.35l7.68-7.68a3.12,3.12,0,0,1,4.41,4.42Z"/></g></g></svg>