<svg xmlns="http://www.w3.org/2000/svg" viewBox="0 0 50 50"><defs><style>.cls-1{fill:#fff;}</style></defs><g id="レイヤー_2" data-name="レイヤー 2"><g id="レイヤー_1-2" data-name="レイヤー 1"><path class="cls-1" d="M43,25H41.41a.78.78,0,0,0-.79.78V45.31a1.56,1.56,0,0,1-1.56,1.57H4.69a1.57,1.57,0,0,1-1.57-1.57V10.94A1.56,1.56,0,0,1,4.69,9.38H24.22A.78.78,0,0,0,25,8.59V7a.78.78,0,0,0-.78-.78H4.69A4.69,4.69,0,0,0,0,10.94V45.31A4.69,4.69,0,0,0,4.69,50H39.06a4.69,4.69,0,0,0,4.69-4.69h0V25.78A.78.78,0,0,0,43,25ZM48.83,0,35.55,0a1.17,1.17,0,0,0-1.17,1.18h0v1a1.17,1.17,0,0,0,1.17,1.17l8.79,0,.06.07L12.84,35a1.16,1.16,0,0,0,0,1.65h0l.56.55a1.16,1.16,0,0,0,1.65,0h0L46.61,5.6l.07.07,0,8.79a1.17,1.17,0,0,0,1.17,1.17h1A1.18,1.18,0,0,0,50,14.46L50,1.17A1.17,1.17,0,0,0,48.83,0Z"/></g></g></svg>