<svg xmlns="http://www.w3.org/2000/svg" viewBox="0 0 50 37.5"><defs><style>.cls-1{fill:#666;}</style></defs><g id="レイヤー_2" data-name="レイヤー 2"><g id="レイヤー_1-2" data-name="レイヤー 1"><path class="cls-1" d="M45.31,0H4.69A4.69,4.69,0,0,0,0,4.69V32.81A4.69,4.69,0,0,0,4.69,37.5H45.31A4.69,4.69,0,0,0,50,32.81V4.69A4.69,4.69,0,0,0,45.31,0ZM4.69,3.12H45.31a1.58,1.58,0,0,1,1.57,1.57v4c-2.14,1.81-5.2,4.3-14.71,11.85C30.52,21.88,27.27,25,25,25s-5.53-3.12-7.17-4.42C8.32,13,5.26,10.54,3.12,8.73v-4A1.58,1.58,0,0,1,4.69,3.12ZM45.31,34.38H4.69a1.58,1.58,0,0,1-1.57-1.57v-20C5.35,14.62,8.87,17.44,15.89,23c2,1.6,5.54,5.12,9.11,5.1s7.06-3.46,9.11-5.1c7-5.58,10.54-8.4,12.77-10.23v20A1.58,1.58,0,0,1,45.31,34.38Z"/></g></g></svg>