<svg xmlns="http://www.w3.org/2000/svg" viewBox="0 0 50 50"><defs><style>.cls-1{fill:#eb9575;}</style></defs><g id="レイヤー_2" data-name="レイヤー 2"><g id="レイヤー_1-2" data-name="レイヤー 1"><path class="cls-1" d="M25,0A25,25,0,1,0,50,25,25,25,0,0,0,25,0Zm0,46.77A21.77,21.77,0,1,1,46.77,25,21.77,21.77,0,0,1,25,46.77ZM39.28,19.06l-18.2,18a1.21,1.21,0,0,1-1.71,0l-8.65-8.73a1.21,1.21,0,0,1,0-1.71l.86-.85a1.21,1.21,0,0,1,1.71,0l7,7L36.72,16.48a1.2,1.2,0,0,1,1.71,0l.85.86a1.21,1.21,0,0,1,0,1.71Z"/></g></g></svg>